# AST/ASF file generated using VICON BodyLanguage
# -----------------------------------------------
:version 1.10
:name VICON
:units
  mass 1.0
  length 0.45
  angle deg
:documentation
   .ast/.asf automatically generated from VICON data using
   VICON BodyBuilder and BodyLanguage model FoxedUp or BRILLIANT.MOD
:root
   order TX TY TZ RX RY RZ
   axis XYZ
   position 0 0 0  
   orientation 0 0 0 
:bonedata
  begin
     id 1 
     name lhipjoint
     direction 0.661853 -0.702389 0.261917 
     length 2.64193 
     axis 0 0 0  XYZ
  end
  begin
     id 2 
     name lfemur
     direction 0.34202 -0.939693 0  
     length 7.01722  
     axis 0 0 20  XYZ
    dof rx ry rz
    limits (-160.0 20.0)
           (-70.0 70.0)
           (-60.0 70.0)
  end
  begin
     id 3 
     name ltibia
     direction 0.34202 -0.939693 0   
     length 8.25008   
     axis 0 0 20   XYZ
    dof rx
    limits (-10.0 170.0)
  end
  begin
     id 4 
     name lfoot
     direction 0.0709916 -0.195048 0.978221   
     length 2.31941   
     axis -90 7.62852e-016 20   XYZ
    dof rx rz
    limits (-45.0 90.0)
           (-70.0 20.0)
  end
  begin
     id 5 
     name ltoes
     direction 1.53586e-011 -4.22017e-011 1   
     length 1.16486   
     axis -90 7.62852e-016 20   XYZ
    dof rx
    limits (-90.0 20.0)
  end
  begin
     id 6 
     name rhipjoint
     direction -0.638185 -0.721362 0.268992   
     length 2.57244  
     axis 0 0 0  XYZ 
  end
  begin
     id 7 
     name rfemur
     direction -0.34202 -0.939693 0   
     length 7.07017   
     axis 0 0 -20   XYZ
    dof rx ry rz
    limits (-160.0 20.0)
           (-70.0 70.0)
           (-70.0 60.0)
  end
  begin
     id 8 
     name rtibia
     direction -0.34202 -0.939693 0   
     length 8.20386   
     axis 0 0 -20   XYZ
    dof rx
    limits (-10.0 170.0)
 end
 begin
     id 9 
     name rfoot
     direction -0.0822429 -0.225961 0.970658   
     length 2.32215  
     axis -90 -7.62852e-016 -20   XYZ
    dof rx rz
    limits (-45.0 90.0)
           (-20.0 70.0)
  end
  begin
     id 10 
     name rtoes
     direction -1.53597e-011 -4.21689e-011 1   
     length 1.16333   
     axis -90 -7.62852e-016 -20   XYZ
    dof rx
    limits (-90.0 20.0)
  end
  begin
     id 11 
     name lowerback
     direction -0.0131557 0.998589 -0.0514484   
     length 2.14993   
     axis 0 0 0   XYZ
    dof rx ry rz
    limits (-20.0 45.0)
           (-30.0 30.0)
           (-30.0 30.0)
  end
  begin
     id 12 
     name upperback
     direction -0.000776481 0.999993 0.00352685   
     length 2.15301   
     axis 0 0 0   XYZ
    dof rx ry rz
    limits (-20.0 45.0)
           (-30.0 30.0)
           (-30.0 30.0)
  end
  begin
     id 13 
     name thorax
     direction 0.00438186 0.999609 0.0276143   
     length 2.15424   
     axis 0 0 0   XYZ
    dof rx ry rz
    limits (-20.0 45.0)
           (-30.0 30.0)
           (-30.0 30.0)
  end
  begin
     id 14 
     name lowerneck
     direction -0.0488006 0.998094 0.0377807   
     length 1.90481   
     axis 0 0 0   XYZ
    dof rx ry rz
    limits (-20.0 45.0)
           (-30.0 30.0)
           (-30.0 30.0)
  end
  begin
     id 15 
     name upperneck
     direction 0.0443769 0.990702 -0.12861   
     length 1.91305   
     axis 0 0 0   XYZ
    dof rx ry rz
    limits (-20.0 45.0)
           (-30.0 30.0)
           (-30.0 30.0)
  end
  begin
     id 16
     name head
     direction 0.0165599 0.998647 -0.0492982  
     length 1.92369  
     axis 0 0 0   XYZ
    dof rx ry rz
    limits (-20.0 45.0)
           (-30.0 30.0)
           (-30.0 30.0)
  end
  begin
     id 17 
     name lclavicle
     direction 0.911936 0.410197 -0.0105506  
     length 3.52622  
     axis 0 0 0   XYZ
    dof ry rz
    limits (-20.0 10.0)
           (0.0 20.0)
  end
  begin
     id 18 
     name lhumerus
     direction 1 -4.48974e-011 -2.48591e-028   
     length 5.47651   
     axis 180 -30 -90   XYZ
    dof rx ry rz
    limits (-60.0 90.0)
           (-90.0 90.0)
           (-90.0 90.0)
  end
  begin
     id 19
     name lradius
     direction 1 -4.48938e-011 -4.40099e-027   
     length 3.09058   
     axis 180 -30 -90   XYZ
    dof rx
    limits (-10.0 170.0)
  end
  begin
     id 20
     name lwrist
     direction 1 -4.49042e-011 -2.99852e-027   
     length 1.54529   
     axis 1.95339e-015 90 90   XYZ
    dof ry
    limits (-180.0 0.0)
 end
  begin
     id 21 
     name lhand
     direction 1 -4.48815e-011 -5.98193e-027   
     length 0.771611   
     axis 3.82337e-015 90 90   XYZ
    dof rx rz
    limits (-90.0 90.0)
           (-45.0 45.0)
  end
  begin
     id 22 
     name lfingers
     direction 1 -4.49034e-011 -1.1993e-026   
     length 0.622093   
     axis 7.64668e-015 90 90   XYZ
    dof rx
    limits (0.0 90.0)
  end
  begin
     id 23
     name lthumb
     direction 0.707107 -6.34867e-011 0.707107   
     length 0.893204   
     axis -90 45 -1.62303e-014   XYZ
    dof rx rz
    limits (-45.0 45.0)
           (-45.0 45.0)
  end
  begin
     id 24 
     name rclavicle
     direction -0.93442 0.355634 -0.0195692   
     length 3.62463  
     axis 0 0 0   XYZ 
    dof ry rz
    limits (-10.0 20.0)
           (-20.0 0.0)
  end
  begin
     id 25 
     name rhumerus
     direction -1 -4.48957e-011 -1.19147e-027  
     length 5.14182   
     axis 180 30 90   XYZ
    dof rx ry rz
    limits (-90.0 60.0)
           (-90.0 90.0)
           (-90.0 90.0)
  end
  begin
     id 26 
     name rradius
     direction -1 -4.48952e-011 -3.81062e-027   
     length 3.35565   
     axis 180 30 90   XYZ
    dof rx
    limits (-10.0 170.0)
  end
  begin
     id 27 
     name rwrist
     direction -1 -4.48973e-011 -2.99621e-027   
     length 1.67782   
     axis 1.95339e-015 -90 -90   XYZ
    dof ry
    limits (-180.0 0.0)
  end
  begin
     id 28
     name rhand
     direction -1 -4.48895e-011 -5.98727e-027   
     length 0.801042   
     axis 3.82337e-015 -90 -90   XYZ
    dof rx rz
    limits (-90.0 90.0)
           (-45.0 45.0)
  end
  begin
     id 29
     name rfingers
     direction -1 -4.49065e-011 -1.19972e-026   
     length 0.645821   
     axis 7.64668e-015 -90 -90   XYZ
    dof rx
    limits (0.0 90.0)
  end
  begin
     id 30
     name rthumb
     direction -0.707107 -6.34957e-011 0.707107   
     length 0.927273   
     axis -90 -45 1.62303e-014   XYZ
    dof rx rz
    limits (-45.0 45.0)
           (-45.0 45.0)
  end
:hierarchy
  begin
    root lhipjoint rhipjoint lowerback
    lhipjoint lfemur
    lfemur ltibia
    ltibia lfoot
    lfoot ltoes
    rhipjoint rfemur
    rfemur rtibia
    rtibia rfoot
    rfoot rtoes
    lowerback upperback
    upperback thorax
    thorax lowerneck lclavicle rclavicle
    lowerneck upperneck
    upperneck head
    lclavicle lhumerus
    lhumerus lradius
    lradius lwrist
    lwrist lhand lthumb
    lhand lfingers
    rclavicle rhumerus
    rhumerus rradius
    rradius rwrist
    rwrist rhand rthumb
    rhand rfingers
  end

#!OML:ASF E:\Style4\Style4.ASF
:FULLY-SPECIFIED
:DEGREES
699
root 0.890427 17.8917 -0.660632 3.17765 -11.5963 2.45616
lowerback 10.6944 1.70071 -1.99622
upperback 3.50769 1.96871 -1.90634
thorax -2.33721 0.974899 -1.09856
lowerneck 4.05115 -18.9172 -5.33445
upperneck 4.67288 -25.801 8.98509
head 2.91577 -12.8923 3.04112
rclavicle -1.46604e-014 2.44505e-014
rhumerus 88.8947 -8.46357 -419.326
rradius 44.4648
rwrist 384.721
rhand -44.8429 42.4473
rfingers 7.12502
rthumb -17.6325 13.2268
lclavicle -1.46604e-014 2.44505e-014
lhumerus 78.1677 30.5246 46.6837
lradius 122.367
lwrist 52.1503
lhand 8.0056 26.7509
lfingers 7.12502
lthumb 33.2323 53.7018
rfemur -18.0545 2.11143 13.263
rtibia 30.0248
rfoot -13.7414 -13.2441
rtoes -15.3015
lfemur -13.5374 5.20207 -24.6348
ltibia 28.2946
lfoot -20.5126 16.3177
ltoes -10.686
700
root 0.892896 17.8816 -0.694024 3.21522 -11.388 2.36994
lowerback 10.8984 1.73002 -1.85835
upperback 3.67539 2.02019 -1.84908
thorax -2.27188 0.999731 -1.12629
lowerneck 4.10644 -18.8915 -5.54248
upperneck 4.89778 -25.7946 9.07209
head 3.02922 -12.8871 3.08491
rclavicle -1.41137e-014 -1.19271e-015
rhumerus 88.6881 -8.23244 -419.428
rradius 45.0086
rwrist 384.781
rhand -44.9959 43.1077
rfingers 7.12502
rthumb -17.7797 13.9005
lclavicle -1.41137e-014 -1.19271e-015
lhumerus 78.0644 30.3564 46.5778
lradius 122.303
lwrist 51.8858
lhand 8.00038 26.5902
lfingers 7.12502
lthumb 33.2274 53.5422
rfemur -18.3431 1.96768 13.3756
rtibia 30.3622
rfoot -13.8103 -13.3042
rtoes -15.2135
lfemur -13.9776 5.20165 -24.538
ltibia 28.7876
lfoot -20.5042 16.2197
ltoes -11.3568
701
root 0.89572 17.8698 -0.727461 3.24153 -11.1695 2.28195
lowerback 11.1078 1.75265 -1.69379
upperback 3.87854 2.06595 -1.80983
thorax -2.17067 1.02194 -1.18652
lowerneck 4.05911 -18.8635 -5.50826
upperneck 5.07822 -25.7615 9.0361
head 3.08685 -12.8642 3.05774
rclavicle -8.94531e-015 1.21259e-014
rhumerus 88.5077 -8.0177 -419.597
rradius 45.5372
rwrist 384.892
rhand -45.0665 43.757
rfingers 7.12502
rthumb -17.8476 14.556
lclavicle -8.94531e-015 1.21259e-014
lhumerus 77.9485 30.2636 46.4868
lradius 122.362
lwrist 51.7072
lhand 8.10999 26.7741
lfingers 7.12502
lthumb 33.3316 53.7037
rfemur -18.6105 1.78703 13.4847
rtibia 30.7051
rfoot -13.9098 -13.3287
rtoes -15.104
lfemur -14.4158 5.20709 -24.4276
ltibia 29.3108
lfoot -20.6101 16.0077
ltoes -11.3074
702
root 0.897533 17.8574 -0.763011 3.24584 -10.9187 2.25521
lowerback 11.3632 1.78732 -1.55569
upperback 4.08428 2.12263 -1.80679
thorax -2.0907 1.04999 -1.27256
lowerneck 4.0353 -18.898 -5.43169
upperneck 5.27358 -25.8061 8.92007
head 3.1328 -12.88 2.99819
rclavicle 8.84592e-015 1.43125e-014
rhumerus 88.285 -7.85233 -419.788
rradius 45.9262
rwrist 385.061
rhand -45.1718 44.6375
rfingers 7.12502
rthumb -17.949 15.4457
lclavicle 8.84592e-015 1.43125e-014
lhumerus 77.9403 30.1533 46.4773
lradius 122.386
lwrist 51.7076
lhand 8.31631 27.0691
lfingers 7.12502
lthumb 33.5277 53.9565
rfemur -18.8856 1.60044 13.5308
rtibia 31.0894
rfoot -14.0385 -13.3934
rtoes -14.8697
lfemur -14.8428 5.16375 -24.3738
ltibia 29.8102
lfoot -20.6018 15.7587
ltoes -11.0005
703
root 0.896987 17.8454 -0.801197 3.30856 -10.6794 2.25198
lowerback 11.627 1.86493 -1.46407
upperback 4.22792 2.22993 -1.8038
thorax -2.08038 1.10339 -1.34116
lowerneck 4.08125 -18.9426 -5.44206
upperneck 5.56741 -25.8795 8.85182
head 3.22487 -12.9107 2.96297
rclavicle -5.96354e-016 3.97569e-015
rhumerus 87.9452 -7.73233 -419.911
rradius 46.2127
rwrist 385.212
rhand -45.3221 45.7015
rfingers 7.12502
rthumb -18.0935 16.5231
lclavicle -5.96354e-016 3.97569e-015
lhumerus 77.9772 29.9952 46.4831
lradius 122.335
lwrist 51.7258
lhand 8.32024 27.0635
lfingers 7.12502
lthumb 33.5315 53.9501
rfemur -19.2627 1.43946 13.5601
rtibia 31.5057
rfoot -14.0946 -13.4999
rtoes -14.65
lfemur -15.3383 5.16985 -24.3589
ltibia 30.2957
lfoot -20.4706 15.5732
ltoes -11.2638
704
root 0.896252 17.8328 -0.839713 3.38994 -10.4905 2.36686
lowerback 11.855 1.94008 -1.56719
upperback 4.33891 2.31285 -1.79644
thorax -2.09195 1.14356 -1.29264
lowerneck 4.16578 -18.9342 -5.45996
upperneck 5.80558 -25.8788 8.79319
head 3.28753 -12.9069 2.94436
rclavicle 4.78574e-014 -7.55382e-015
rhumerus 87.6052 -7.55475 -419.883
rradius 46.4341
rwrist 385.149
rhand -45.5323 46.7504
rfingers 7.12502
rthumb -18.2958 17.5908
lclavicle 4.78574e-014 -7.55382e-015
lhumerus 77.8852 29.9062 46.3887
lradius 122.301
lwrist 51.6267
lhand 8.24741 26.9997
lfingers 7.12502
lthumb 33.4622 53.9012
rfemur -19.7266 1.24877 13.4465
rtibia 31.96
rfoot -14.1886 -13.503
rtoes -14.2509
lfemur -15.8676 5.18609 -24.4878
ltibia 30.7701
lfoot -20.424 15.4205
ltoes -11.4411
